HIERARCHY
ROOT Hips
{
  OFFSET 267.745 86.9975 -272.335
  CHANNELS 6 Xposition Yposition Zposition Zrotation Xrotation Yrotation
  JOINT LeftUpLeg
  {
    OFFSET 8.64259 1.95398 -2.38835
    CHANNELS 3 Zrotation Xrotation Yrotation
    JOINT LeftLeg
    {
      OFFSET 43.7702 0 0
      CHANNELS 3 Zrotation Xrotation Yrotation
      JOINT LeftFoot
      {
        OFFSET 40.6238 0 0
        CHANNELS 3 Zrotation Xrotation Yrotation
        JOINT LeftToeBase
        {
          OFFSET 12.7242 0 0
          CHANNELS 3 Zrotation Xrotation Yrotation
          End Site
          {
            OFFSET 0 0 0
          }
        }
      }
    }
  }
  JOINT RightUpLeg
  {
    OFFSET -8.2249 1.95398 -2.59336
    CHANNELS 3 Zrotation Xrotation Yrotation
    JOINT RightLeg
    {
      OFFSET 43.5653 0 0
      CHANNELS 3 Zrotation Xrotation Yrotation
      JOINT RightFoot
      {
        OFFSET 40.6238 0 0
        CHANNELS 3 Zrotation Xrotation Yrotation
        JOINT RightToeBase
        {
          OFFSET 12.7242 0 0
          CHANNELS 3 Zrotation Xrotation Yrotation
          End Site
          {
            OFFSET 0 0 0
          }
        }
      }
    }
  }
  JOINT Spine
  {
    OFFSET 0.165834 0.87714 6.61349
    CHANNELS 3 Zrotation Xrotation Yrotation
    JOINT Spine1
    {
      OFFSET 7.38963 1.71661e-005 0
      CHANNELS 3 Zrotation Xrotation Yrotation
      JOINT Spine2
      {
        OFFSET 11.9445 1.14441e-005 0
        CHANNELS 3 Zrotation Xrotation Yrotation
        JOINT Spine3
        {
          OFFSET 14.7254 4.19617e-005 0
          CHANNELS 3 Zrotation Xrotation Yrotation
          JOINT Spine4
          {
            OFFSET 10.9679 0 0
            CHANNELS 3 Zrotation Xrotation Yrotation
            JOINT RightShoulder
            {
              OFFSET 2.46616 -1.6653 3.69651
              CHANNELS 3 Zrotation Xrotation Yrotation
              JOINT RightArm
              {
                OFFSET 13.0012 0 0
                CHANNELS 3 Zrotation Xrotation Yrotation
                JOINT RightForeArm
                {
                  OFFSET 28.7848 1.52588e-005 0
                  CHANNELS 3 Zrotation Xrotation Yrotation
                  JOINT RightHand
                  {
                    OFFSET 26.5688 1.52588e-005 0
                    CHANNELS 3 Zrotation Xrotation Yrotation
                    End Site
                    {
                      OFFSET 0 0 0
                    }
                  }
                }
              }
            }
            JOINT LeftShoulder
            {
              OFFSET 2.38034 -1.29275 -3.7523
              CHANNELS 3 Zrotation Xrotation Yrotation
              JOINT LeftArm
              {
                OFFSET 16.3182 6.10352e-005 0
                CHANNELS 3 Zrotation Xrotation Yrotation
                JOINT LeftForeArm
                {
                  OFFSET 27.0901 0 0
                  CHANNELS 3 Zrotation Xrotation Yrotation
                  JOINT LeftHand
                  {
                    OFFSET 24.5451 1.52588e-005 0
                    CHANNELS 3 Zrotation Xrotation Yrotation
                    End Site
                    {
                      OFFSET 0 0 0
                    }
                  }
                }
              }
            }
            JOINT Neck
            {
              OFFSET 5.0226 -0.0266342 0
              CHANNELS 3 Zrotation Xrotation Yrotation
              JOINT Head
              {
                OFFSET 6.69364 2.86102e-005 0
                CHANNELS 3 Zrotation Xrotation Yrotation
                End Site
                {
                  OFFSET 0 0 0
                }
              }
            }
          }
        }
      }
    }
  }
}
MOTION
Frames:	18
Frame Time:	0.0416667
-127.099 96.7854 -21.088 98.4266 -85.0873 87.9699 -174.597 10.9262 97.8987 -9.82403 21.2128 4.40582 43.3633 -8.7614 -6.6793 41.5093 -1.45918 7.55979 171.405 13.1485 70.7744 -25.402 -3.75012 -2.77481 60.2071 6.95842 17.7848 39.5328 -2.64772 1.16905 -0.0543863 7.54668 -90.5306 11.7778 -0.357402 -1.01984 0.106487 -0.401951 -1.00314 -22.4255 -0.0344048 -1.08011 -2.41282 -0.0343918 -1.08011 101.327 -48.7512 -83.4963 22.1474 -2.2096 -4.35722 0.438714 -11.941 -17.1204 -16.0716 -0.975524 1.88931 -82.6533 -53.0187 89.8151 -30.9486 -5.39636 -17.9868 -0.492284 39.1922 -0.00112428 -2.7154 -0.0754892 -9.39054 10.8754 3.09842 6.20553 -23.2474 1.63834 -0.319728 
-124.584 96.1734 -20.8015 96.5848 -84.831 85.6932 -174.451 11.1303 99.5703 -10.0476 21.2179 5.01119 41.2646 -9.58782 -7.6172 39.2137 -1.3739 8.25727 171.164 14.3864 68.7561 -26.939 -4.00966 -3.15507 59.7575 6.99939 18.3031 42.1985 -3.25596 1.76342 -0.0644278 7.5577 -90.4727 11.7562 -0.350123 -0.905389 0.0849495 -0.389627 -0.889107 -22.4477 -0.0618492 -0.968757 -2.43506 -0.0618399 -0.968757 101.305 -48.7862 -83.5301 21.3484 -1.80876 -4.4159 0.549272 -11.8456 -16.5102 -15.2885 -0.900572 1.68505 -82.7384 -53.3787 89.72 -30.1203 -5.92819 -18.0429 -0.344751 38.4642 -0.000764533 -2.94601 -0.0642564 -9.68129 11.0411 2.42329 1.44273 -22.1241 1.00544 6.44947 
-121.838 95.2749 -20.4271 95.3086 -85.4227 84.7197 -173.961 11.7019 101.815 -11.6699 22.2144 5.63829 40.9286 -9.88518 -8.04956 37.5472 -1.29859 8.15752 170.927 15.9762 67.0583 -28.853 -5.04884 -3.15542 59.336 6.87632 19.0215 44.6739 -3.80441 2.16139 -0.0126369 7.56559 -90.4644 11.7409 -0.243169 -0.90023 0.069634 -0.282557 -0.888652 -22.463 0.0386114 -0.931684 -2.45037 0.038613 -0.931689 101.133 -48.2682 -83.8127 20.9549 -2.39797 -4.24308 0.911008 -11.3492 -16.4307 -15.554 -0.951561 1.95532 -82.7329 -53.0835 89.7039 -29.9224 -6.24342 -17.5924 -0.221135 37.648 -0.000449801 -1.87954 -0.10711 -8.88827 11.9568 2.80775 3.2148 -22.7261 1.29123 4.10938 
-118.809 94.0092 -20.0198 98.9921 -85.7928 89.2664 -173.63 12.7523 104.295 -14.4596 22.676 6.54054 41.7693 -9.84453 -7.46334 37.1058 -1.24656 7.1823 170.391 17.3267 65.5481 -31.0666 -6.92561 -2.83646 59.0679 6.37793 18.7281 48.6886 -4.72738 2.06735 -0.0400699 7.6677 -90.4459 11.5366 -0.288337 -0.858831 -0.1346 -0.325845 -0.845309 -22.6675 -0.0169038 -0.905773 -2.65484 -0.0168974 -0.905775 101.345 -48.5771 -83.4707 20.3951 -1.83874 -6.09388 1.08144 -11.9553 -14.8039 -14.8202 -0.801055 1.10735 -82.3446 -52.8022 90.2508 -29.2492 -6.5261 -17.6022 -0.1888 37.2062 -0.000340682 -1.5344 -0.122835 -8.79755 13.5232 2.62221 0.695207 -23.4243 1.22167 6.8336 
-115.456 92.2625 -19.6336 94.1363 -85.5207 85.8074 -173.514 14.2463 106.966 -15.9088 22.4734 7.20777 40.3452 -10.5587 -7.53583 38.8561 -1.35271 8.01219 170.348 19.5035 64.2047 -34.374 -7.39182 -2.74607 58.159 6.96519 20.1591 52.7078 -5.63422 2.18142 -0.082285 7.6231 -90.4522 11.6254 -0.375539 -0.862162 -0.0457223 -0.413117 -0.844806 -22.5786 -0.0990795 -0.935165 -2.566 -0.0990755 -0.935172 101.532 -48.5037 -83.1747 20.4187 -2.41074 -5.42571 0.629803 -11.542 -16.7507 -14.9319 -0.821549 1.22814 -82.2414 -52.643 90.3904 -28.0941 -6.5705 -17.0742 -0.40487 37.9983 -0.000744258 -2.10935 -0.101139 -8.99228 13.6304 3.07797 1.76768 -23.6042 1.80863 4.32398 
-111.668 90.2041 -19.3731 102.086 -84.1717 94.9929 -175.025 14.957 108.848 -19.1179 23.4857 8.38477 40.4601 -10.1839 -6.79923 41.6366 -1.47896 10.1405 169.774 20.0798 62.3633 -37.1227 -9.66725 -2.71243 57.2228 6.97498 18.7278 58.6143 -6.95715 2.39682 -0.194395 7.78139 -90.3905 11.3089 -0.568776 -0.721256 -0.36207 -0.599965 -0.695536 -22.8961 -0.325722 -0.858842 -2.88339 -0.32572 -0.858845 101.733 -49.0755 -82.849 20.1052 -2.27359 -5.10494 0.742564 -9.60493 -18.3835 -15.4875 -0.695612 0.0235714 -82.2251 -52.1216 90.3755 -27.0551 -6.30783 -17.7492 -0.346784 38.4774 -0.468568 -2.66693 -0.0788715 -8.94657 13.507 2.08677 -1.80718 -22.13 1.20114 8.17696 
-107.274 87.933 -19.0946 102.915 -82.3265 98.5567 -177.59 16.0371 111.364 -23.4727 25.181 9.58371 41.253 -8.97265 -10.164 55.146 -1.21063 14.1024 169.664 18.8454 61.9288 -37.9118 -9.70806 -3.06357 56.6001 7.62489 19.6117 61.9942 -8.09746 0.787568 -0.286127 7.81812 -90.3996 11.235 -0.755322 -0.72089 -0.435919 -0.786318 -0.686957 -22.9704 -0.503757 -0.914554 -2.95775 -0.50376 -0.914561 102.482 -50.2143 -81.6749 19.6677 -2.09799 -4.36085 0.991997 -8.31278 -19.2359 -15.7625 -0.725761 0.161425 -82.5767 -49.9495 89.6691 -27.6035 -5.77977 -17.5885 0.811346 39.685 -2.33361 -1.73405 -0.115918 -9.034 13.1842 1.36106 -4.11012 -22.0446 1.04335 8.39077 
-102.083 86.0687 -18.7191 99.8159 -79.9204 98.0331 179.16 18.1711 111.548 -30.8809 20.9065 11.2957 49.698 -4.83714 -11.5291 64.4199 -0.884708 15.8209 169.394 15.4412 61.239 -34.4826 -10.0795 -3.86173 53.2742 9.62288 22.5109 64.5188 -9.28455 -1.52578 -0.474761 7.79546 -90.3761 11.2798 -1.11988 -0.637716 -0.390818 -1.14687 -0.587811 -22.9273 -0.87646 -0.944811 -2.91466 -0.876459 -0.944816 103.496 -51.5665 -80.1312 19.2888 -0.0424935 -2.65468 0.616852 -7.11627 -21.2831 -16.016 -0.844861 0.94939 -82.9212 -47.9224 88.9602 -28.8634 -4.86096 -17.2784 2.50869 41.7374 -4.73374 -1.10255 -0.140363 -8.80424 12.3986 0.354918 -7.1336 -21.9047 0.672632 9.18815 
-96.06 85.4079 -18.5552 95.9793 -77.1342 95.7469 178.538 22.0609 109.273 -39.1894 20.8171 10.6972 59.8638 1.66798 -0.0540514 64.0219 -1.57365 12.2361 166.589 10.8116 58.9371 -24.8016 -7.8761 -3.48281 44.7454 12.7493 29.3424 61.6536 -8.83124 -3.02228 -0.647922 7.82206 -90.3005 11.2273 -1.42925 -0.457353 -0.442959 -1.44798 -0.393995 -22.9824 -1.22572 -0.865802 -2.96975 -1.22571 -0.865804 104.826 -52.8138 -78.1592 19.4738 4.20679 -1.19656 -0.485066 -7.49314 -22.748 -16.0621 -0.821596 0.761878 -84.238 -46.6793 86.7617 -29.9146 -3.24619 -18.9497 0.912147 41.152 -3.17969 0.577991 -0.188731 -8.18149 11.9903 -1.13103 -10.6582 -21.4056 -0.158574 10.8619 
-90.2144 86.6318 -18.5807 90.5151 -74.9099 92.2296 178.361 25.4134 108.14 -44.1441 24.6371 9.64297 63.1474 4.45486 3.45087 61.6949 -1.76321 11.0607 164.997 5.57573 59.0031 -13.2184 -4.84885 -3.89934 35.9034 15.0457 32.1101 43.0524 -3.93993 -7.83468 -0.678223 7.81911 -90.3684 11.232 -1.52123 -0.583578 -0.43818 -1.54543 -0.516052 -22.9776 -1.27551 -1.01384 -2.96497 -1.27551 -1.01384 105.201 -52.8585 -77.5964 20.7231 7.66121 0.179987 -1.27972 -8.41907 -22.2987 -16.0937 -0.843359 0.911262 -84.6707 -47.3208 86.1639 -29.5814 -1.4496 -22.7149 -2.23613 43.8131 0.321789 1.17776 -0.246746 -9.42768 11.0661 -1.67432 -9.63969 -20.2092 -0.638261 8.98507 
-85.6502 88.6822 -18.8916 86.3455 -75.6236 89.4244 179.792 26.2688 106.767 -43.9983 25.3324 7.9861 62.2791 4.41515 5.06195 59.6021 -2.09019 8.78393 168.013 7.78949 61.857 -17.4159 -5.76616 -4.71784 42.7727 13.9985 28.3576 32.3423 -0.537903 -5.6789 -0.370686 7.83994 -90.2796 11.1927 -0.867677 -0.470724 -0.478025 -0.887551 -0.432088 -23.014 -0.686102 -0.709739 -3.00136 -0.686103 -0.709743 104.613 -52.861 -78.4818 22.7042 7.76893 0.435738 -1.38236 -10.8127 -18.3305 -14.9013 -0.795399 1.02857 -84.5698 -47.3556 86.326 -27.8597 0.59153 -24.9468 -1.96435 44.0465 -1.7155 0.369981 -0.201693 -8.93074 9.28076 -1.79299 -7.79826 -18.4288 -0.758376 5.67861 
-81.8429 90.7435 -19.2366 84.9297 -76.6082 89.4179 179.9 24.3777 105.171 -41.5634 24.9177 7.92325 60.6746 3.79872 7.32895 58.9591 -2.17652 8.06277 169.08 10.2094 66.0544 -22.5596 -1.94807 -3.13651 50.7079 11.7918 29.7897 33.481 -0.942442 -4.92191 -0.171974 7.95322 -90.2077 10.9665 -0.438451 -0.371465 -0.704389 -0.454377 -0.351815 -23.2395 -0.306541 -0.486065 -3.22681 -0.306541 -0.486068 104.166 -52.8547 -79.1546 23.9395 5.42018 -1.59258 -0.720505 -14.0323 -13.568 -13.2448 -0.677895 0.783601 -84.6018 -47.4211 86.2847 -25.7484 1.30573 -24.5266 1.01083 40.7808 -7.11121 -0.565189 -0.167289 -9.27969 8.55898 -1.54345 -5.70994 -18.1697 -0.621723 2.66786 
-78.7117 92.4848 -19.6156 84.8274 -76.5415 90.4406 -179.401 22.1111 103.58 -37.5899 23.7586 7.69862 61.0092 4.23435 8.9134 55.0955 -2.21232 6.32847 169.674 11.9294 71.4731 -28.6423 1.17149 -1.41126 54.8859 9.97895 27.3504 37.8877 -2.24488 -1.45398 -0.176112 8.02304 -90.1902 10.8271 -0.438468 -0.337442 -0.843829 -0.452898 -0.317817 -23.379 -0.316789 -0.45362 -3.36634 -0.316775 -0.453612 103.889 -52.4925 -79.5614 24.889 4.08908 -2.72308 -0.193101 -14.0056 -12.4782 -12.7999 -0.643468 0.678194 -84.9037 -46.8112 85.7317 -25.4181 1.26977 -23.0007 2.0104 34.8792 -9.48848 4.42292 -0.400638 -9.5894 7.32159 -1.46372 -5.14646 -17.7802 -0.716827 2.68516 
-75.7326 93.4389 -20.0335 85.4471 -76.5917 91.1971 -178.799 19.4789 101.399 -33.8553 23.972 7.59789 61.7502 4.97423 11.5772 52.472 -2.21672 4.63901 168.262 14.7893 75.9152 -36.1348 3.907 1.133 57.0047 8.67551 26.0095 42.6215 -3.42899 -0.159715 -0.282103 8.05057 -90.1363 10.7723 -0.624531 -0.213234 -0.898534 -0.63331 -0.185547 -23.4345 -0.531573 -0.391069 -3.42185 -0.531577 -0.391086 103.775 -52.0317 -79.7193 25.5097 3.54539 -2.9565 -0.578711 -13.2965 -14.394 -12.9731 -0.600765 0.203038 -84.6569 -46.3192 86.0547 -25.6622 0.831948 -21.3018 2.52176 31.6316 -10.8223 5.75257 -0.468714 -9.69575 5.88299 -1.59743 -6.88784 -16.035 -0.891239 5.99714 
-73.0646 94.1663 -20.4819 86.9299 -77.3624 91.6534 -177.839 17.7268 98.9778 -31.7388 24.1237 6.75123 61.9411 4.61404 12.0451 49.7462 -2.15794 2.77174 167.168 17.929 80.0031 -43.5357 4.92598 2.61007 59.3391 7.39646 25.6114 42.5984 -3.3364 2.11381 -0.348443 8.10951 -89.9919 10.6555 -0.690191 0.0792884 -1.01525 -0.686019 0.109589 -23.5519 -0.682107 -0.13181 -3.53922 -0.682108 -0.131815 103.324 -52.2958 -80.4115 25.5928 3.16061 -2.79536 -1.03103 -11.5629 -17.9638 -13.8154 -0.655837 0.335654 -84.5726 -46.4031 86.1989 -25.0514 0.327836 -20.8563 1.99493 31.2419 -10.0183 4.62952 -0.417198 -9.70168 6.76795 -1.06449 -5.671 -16.5391 -0.502135 5.28727 
-70.706 94.7894 -20.8277 89.6023 -77.8037 93.6758 -177.219 15.9361 97.1478 -29.7336 24.1079 5.98788 61.9811 4.34824 12.1568 46.9953 -1.94635 1.98435 166.636 19.4496 84.7651 -47.643 4.2123 3.77884 60.817 7.10637 26.7061 42.9964 -3.34682 4.00647 -0.407625 8.16268 -89.9518 10.5492 -0.789714 0.16655 -1.12157 -0.781614 0.201144 -23.6586 -0.803251 -0.0784954 -3.646 -0.803256 -0.0785073 102.694 -51.8963 -81.3638 26.5362 2.16705 -2.6138 -1.75619 -11.1226 -21.1817 -14.0906 -0.728086 0.839901 -84.7167 -46.8085 86.0252 -25.2754 -1.49296 -22.6261 -0.936761 33.7288 -3.1537 4.11432 -0.417579 -10.1507 7.5564 -0.389974 -4.26506 -17.2406 -0.0323513 4.51551 
-68.4159 95.588 -20.8482 93.206 -77.9493 97.3816 -176.547 13.5507 96.1725 -27.123 24.4893 5.50958 61.6865 3.8409 12.0867 44.8128 -1.77554 0.620438 167.848 18.6392 89.851 -46.9931 2.60552 4.45589 63.8605 6.64958 28.9782 42.0667 -3.13296 4.61554 -0.468255 8.1741 -89.9912 10.5264 -0.928625 0.100339 -1.14426 -0.923298 0.14111 -23.682 -0.915841 -0.183418 -3.66937 -0.915838 -0.183407 102.086 -51.8348 -82.2908 27.4632 0.685541 -2.70828 -2.94643 -12.5959 -23.0376 -13.7846 -0.667093 0.44832 -84.6898 -47.0697 86.1014 -26.1294 -3.63265 -23.3953 -1.59393 37.5249 -0.00299171 3.4442 -0.353685 -9.54638 5.80315 -0.423048 -6.21975 -15.1352 -0.0345209 8.23145 
-66.6248 96.1906 -20.8357 93.4843 -79.0206 96.631 -175.599 11.5068 94.7482 -23.4322 24.0793 4.01052 61.3259 3.20171 11.2654 42.1051 -1.48884 -0.791983 170.428 17.9455 93.0727 -42.8961 1.77807 4.1731 65.7766 6.67651 30.9207 45.5711 -3.73934 6.36045 -0.443583 8.04732 -89.8891 10.7805 -0.832051 0.298022 -0.89024 -0.818132 0.334349 -23.4275 -0.883152 0.0341682 -3.41486 -0.88316 0.0341517 101.678 -52.1551 -82.9104 28.0789 -0.553871 -3.23046 -4.25385 -15.0562 -23.5043 -12.8319 -0.540603 -0.292476 -84.5443 -47.3193 86.3616 -26.5158 -4.41116 -23.2878 -1.187 38.7118 -0.00235077 4.14311 -0.286136 -7.7595 5.22633 -0.0964337 -5.87411 -15.24 0.244395 7.68979 
